<!DOCTYPE svg PUBLIC "-//W3C//DTD SVG 1.1//EN" "http://www.w3.org/Graphics/SVG/1.1/DTD/svg11.dtd">
<!-- Uploaded to: SVG Repo, www.svgrepo.com, Transformed by: SVG Repo Mixer Tools -->
<svg fill="#000000" height="800px" width="800px" version="1.1" id="Layer_1" xmlns="http://www.w3.org/2000/svg" xmlns:xlink="http://www.w3.org/1999/xlink" viewBox="0 0 512.00 512.00" xml:space="preserve" transform="matrix(1, 0, 0, -1, 0, 0)rotate(0)" stroke="#000000" stroke-width="0.00512">
<g id="SVGRepo_bgCarrier" stroke-width="0"/>
<g id="SVGRepo_tracerCarrier" stroke-linecap="round" stroke-linejoin="round" stroke="#CCCCCC" stroke-width="8.192"/>
<g id="SVGRepo_iconCarrier"> <g transform="translate(1 1)"> <g> <g> <path d="M255-1C114.2-1-1,114.2-1,255c0,108.554,68.483,201.875,164.373,238.933H7.533c-5.12,0-8.533,3.413-8.533,8.533 S2.413,511,7.533,511H255c140.8,0,256-115.2,256-256S395.8-1,255-1z M255,493.933c-131.413,0-238.933-107.52-238.933-238.933 S123.587,16.067,255,16.067S493.933,123.587,493.933,255S386.413,493.933,255,493.933z"/> <path d="M153.322,220.354c2.674,0.506,4.944,0.512,7.811,0.512c33.28,0,59.733-26.453,59.733-59.733c0-3.413,0-5.973,0-10.24 c0-1.585-0.657-3.168-1.763-4.348c-6.42-26.098-29.734-45.145-57.97-45.145c-33.28,0-59.733,26.453-59.733,59.733 C101.4,191.761,123.811,216.589,153.322,220.354z M193.451,133.032c3.767,4.346,6.66,9.478,8.414,15.156 c-22.988,11.526-41.968,30.132-53.359,53.773c-5.805-1.743-11.047-4.673-15.474-8.51 C146.666,167.088,167.088,146.666,193.451,133.032z M190.232,192.565c-6.324,5.804-14.352,9.585-23.125,10.382 c8.472-15.25,21.153-27.971,36.366-36.504c-1.167,9.759-5.504,18.418-11.998,24.934c-0.209,0.208-0.424,0.408-0.637,0.611 C190.637,192.181,190.437,192.375,190.232,192.565z M161.133,118.467c6.151,0,11.958,1.252,17.197,3.507 c-23.433,13.48-42.876,32.923-56.356,56.356c-2.255-5.239-3.507-11.046-3.507-17.197 C118.467,137.24,137.24,118.467,161.133,118.467z"/> <path d="M348.867,101.4c-30.628,0-55.455,22.411-59.221,51.922c-0.506,2.674-0.512,4.944-0.512,7.811 c0,33.28,26.453,59.733,59.733,59.733c3.413,0,5.973,0,10.24,0c1.585,0,3.168-0.657,4.348-1.763 c26.099-6.42,45.145-29.734,45.145-57.97C408.6,127.853,382.147,101.4,348.867,101.4z M311.253,181.556 c-2.445-4.569-4.071-9.663-4.723-15.095c15.212,9.368,27.892,22.083,36.364,36.485 C329.443,201.113,317.747,193.144,311.253,181.556z M361.812,201.865c-11.526-22.988-30.132-41.968-53.773-53.359 c1.743-5.805,4.673-11.047,8.51-15.474c26.363,13.634,46.785,34.056,60.419,60.419 C372.622,197.218,367.49,200.111,361.812,201.865z M388.026,178.33c-13.48-23.433-32.923-42.876-56.356-56.356 c5.239-2.255,11.046-3.507,17.197-3.507c23.893,0,42.667,18.773,42.667,42.667C391.533,167.284,390.281,173.091,388.026,178.33z"/> <path d="M356.443,289.616c-2.786-0.475-5.471-0.483-7.577-0.483c-33.28,0-59.733,26.453-59.733,59.733 c0,3.413,0,5.973,0.853,10.24c0,0.726,0.151,1.448,0.406,2.135c5.615,27.229,29.445,47.358,58.474,47.358 c33.28,0,59.733-26.453,59.733-59.733C408.6,318.158,386.07,293.28,356.443,289.616z M316.55,376.969 c-3.767-4.346-6.661-9.478-8.415-15.157c22.979-11.521,41.952-30.117,53.344-53.744c5.603,1.749,10.727,4.762,14.694,9.225 C363.392,342.856,342.101,364.163,316.55,376.969z M328.444,311.253c4.569-2.445,9.663-4.071,15.095-4.723 c-9.368,15.212-22.083,27.892-36.485,36.364C308.888,329.443,316.856,317.747,328.444,311.253z M348.867,391.533 c-6.151,0-11.958-1.252-17.197-3.507c23.433-13.48,42.876-32.923,56.356-56.356c2.255,5.239,3.507,11.046,3.507,17.197 C391.533,372.76,372.76,391.533,348.867,391.533z"/> <path d="M255,220.867c-18.773,0-34.133,15.36-34.133,34.133c0,18.773,15.36,34.133,34.133,34.133 c18.773,0,34.133-15.36,34.133-34.133C289.133,236.227,273.773,220.867,255,220.867z M255,272.067 c-9.387,0-17.067-7.68-17.067-17.067s7.68-17.067,17.067-17.067s17.067,7.68,17.067,17.067S264.387,272.067,255,272.067z"/> <path d="M161.133,289.133c-2.56,0-5.973,0-10.24,0.853c-0.726,0-1.448,0.151-2.135,0.406 c-27.229,5.615-47.358,29.445-47.358,58.474c0,33.28,26.453,59.733,59.733,59.733c30.628,0,55.455-22.411,59.221-51.922 c0.506-2.674,0.512-4.944,0.512-7.811C220.867,315.587,194.413,289.133,161.133,289.133z M202.62,342.704 c-15.103-8.471-27.706-21.074-36.177-36.177c9.57,1.144,18.076,5.343,24.547,11.63 C197.276,324.628,201.475,333.134,202.62,342.704z M147.825,308.255c11.31,22.941,29.64,41.957,52.981,53.527 c-1.694,5.278-4.388,10.214-8.1,14.39c-25.563-12.781-46.869-34.073-59.676-59.624 C137.284,312.863,142.292,310.019,147.825,308.255z M118.467,348.867c0-6.151,1.252-11.958,3.507-17.197 c13.48,23.433,32.923,42.876,56.356,56.356c-5.239,2.255-11.046,3.507-17.197,3.507 C137.24,391.533,118.467,372.76,118.467,348.867z"/> </g> </g> </g> </g>
</svg>